name p11_grf_mean_speed_1.4
datacolumns 13
datarows 57
range 0.0000000000 0.5600000000
endheader
time	grf_x_l_mean	grf_x_l_var	grf_y_l_mean	grf_y_l_var	grf_z_l_mean	grf_z_l_var	grf_x_r_mean	grf_x_r_var	grf_y_r_mean	grf_y_r_var	grf_z_r_mean	grf_z_r_var
0.0000000000	190.8898610386	1.0000000000	963.0189533527	1.0000000000	0.0000000000	0.0000000000	12.4904619482	1.0000000000	11.1839727389	1.0000000000	0.0000000000	0.0000000000
0.0100000000	203.2735550324	1.0000000000	951.1658936178	1.0000000000	0.0000000000	0.0000000000	19.8895435357	1.0000000000	56.0238415484	1.0000000000	0.0000000000	0.0000000000
0.0200000000	213.9968125175	1.0000000000	926.7292613829	1.0000000000	0.0000000000	0.0000000000	21.9606230200	1.0000000000	132.0939107930	1.0000000000	0.0000000000	0.0000000000
0.0300000000	222.1963462794	1.0000000000	887.6230605232	1.0000000000	0.0000000000	0.0000000000	8.1999190400	1.0000000000	229.3150355094	1.0000000000	0.0000000000	0.0000000000
0.0400000000	225.2848979608	1.0000000000	830.8580301366	1.0000000000	0.0000000000	0.0000000000	-25.6520493454	1.0000000000	323.4812467951	1.0000000000	0.0000000000	0.0000000000
0.0500000000	221.5829697636	1.0000000000	753.0315104657	1.0000000000	0.0000000000	0.0000000000	-65.7445654894	1.0000000000	403.9902161450	1.0000000000	0.0000000000	0.0000000000
0.0600000000	210.8600577199	1.0000000000	656.9106758790	1.0000000000	0.0000000000	0.0000000000	-97.9589000662	1.0000000000	476.0588694338	1.0000000000	0.0000000000	0.0000000000
0.0700000000	190.4778994043	1.0000000000	547.0595742168	1.0000000000	0.0000000000	0.0000000000	-124.0596132763	1.0000000000	542.9451568695	1.0000000000	0.0000000000	0.0000000000
0.0800000000	158.6317454407	1.0000000000	429.5600687619	1.0000000000	0.0000000000	0.0000000000	-147.7883262874	1.0000000000	607.4087211077	1.0000000000	0.0000000000	0.0000000000
0.0900000000	120.0315359077	1.0000000000	317.0077337567	1.0000000000	0.0000000000	0.0000000000	-166.6992539216	1.0000000000	673.2420864676	1.0000000000	0.0000000000	0.0000000000
0.1000000000	81.5465341991	1.0000000000	220.6777029211	1.0000000000	0.0000000000	0.0000000000	-180.1105548186	1.0000000000	739.5640476706	1.0000000000	0.0000000000	0.0000000000
0.1100000000	49.1003588707	1.0000000000	143.2498929750	1.0000000000	0.0000000000	0.0000000000	-187.0290049478	1.0000000000	800.5597002202	1.0000000000	0.0000000000	0.0000000000
0.1200000000	25.8922399680	1.0000000000	86.8750873804	1.0000000000	0.0000000000	0.0000000000	-186.9480098925	1.0000000000	854.3049195649	1.0000000000	0.0000000000	0.0000000000
0.1300000000	11.2616991545	1.0000000000	51.2618281681	1.0000000000	0.0000000000	0.0000000000	-182.8103764835	1.0000000000	899.7315334512	1.0000000000	0.0000000000	0.0000000000
0.1400000000	3.3883534457	1.0000000000	29.9394486684	1.0000000000	0.0000000000	0.0000000000	-174.3376837062	1.0000000000	932.2722758466	1.0000000000	0.0000000000	0.0000000000
0.1500000000	-0.3456727619	1.0000000000	16.8939574109	1.0000000000	0.0000000000	0.0000000000	-162.7038964533	1.0000000000	950.0465888501	1.0000000000	0.0000000000	0.0000000000
0.1600000000	-1.8961688701	1.0000000000	10.3510392716	1.0000000000	0.0000000000	0.0000000000	-150.0398766830	1.0000000000	955.3470147174	1.0000000000	0.0000000000	0.0000000000
0.1700000000	-2.0192317285	1.0000000000	7.1907504067	1.0000000000	0.0000000000	0.0000000000	-136.0630768090	1.0000000000	948.6068230683	1.0000000000	0.0000000000	0.0000000000
0.1800000000	-2.1018251708	1.0000000000	5.1709899921	1.0000000000	0.0000000000	0.0000000000	-121.3898191257	1.0000000000	930.5835448664	1.0000000000	0.0000000000	0.0000000000
0.1900000000	-1.8942224863	1.0000000000	4.7216669319	1.0000000000	0.0000000000	0.0000000000	-107.4944802816	1.0000000000	903.6482862014	1.0000000000	0.0000000000	0.0000000000
0.2000000000	-1.3978609131	1.0000000000	4.8586925365	1.0000000000	0.0000000000	0.0000000000	-93.3890279160	1.0000000000	869.4951071505	1.0000000000	0.0000000000	0.0000000000
0.2100000000	-1.1025037048	1.0000000000	4.2096050530	1.0000000000	0.0000000000	0.0000000000	-80.5130693548	1.0000000000	830.0941236064	1.0000000000	0.0000000000	0.0000000000
0.2200000000	-0.4621715127	1.0000000000	3.8657755307	1.0000000000	0.0000000000	0.0000000000	-69.2010700044	1.0000000000	788.9415729372	1.0000000000	0.0000000000	0.0000000000
0.2300000000	0.3140284361	1.0000000000	3.8436560960	1.0000000000	0.0000000000	0.0000000000	-58.7642014195	1.0000000000	748.4777110391	1.0000000000	0.0000000000	0.0000000000
0.2400000000	0.1378552769	1.0000000000	3.2364781489	1.0000000000	0.0000000000	0.0000000000	-49.8519261526	1.0000000000	710.6631762927	1.0000000000	0.0000000000	0.0000000000
0.2500000000	0.1535752317	1.0000000000	2.8598924575	1.0000000000	0.0000000000	0.0000000000	-42.3695842127	1.0000000000	678.8221714165	1.0000000000	0.0000000000	0.0000000000
0.2600000000	0.2316991940	1.0000000000	2.8190664717	1.0000000000	0.0000000000	0.0000000000	-35.3093912424	1.0000000000	654.3377928203	1.0000000000	0.0000000000	0.0000000000
0.2700000000	-0.0442843483	1.0000000000	2.3688424508	1.0000000000	0.0000000000	0.0000000000	-29.0073632999	1.0000000000	635.8027624524	1.0000000000	0.0000000000	0.0000000000
0.2800000000	-0.0448706452	1.0000000000	1.9848260307	1.0000000000	0.0000000000	0.0000000000	-23.2327792483	1.0000000000	623.8670639126	1.0000000000	0.0000000000	0.0000000000
0.2900000000	-0.0443510874	1.0000000000	2.0636192419	1.0000000000	0.0000000000	0.0000000000	-17.8037104272	1.0000000000	618.8400770076	1.0000000000	0.0000000000	0.0000000000
0.3000000000	-0.2015255643	1.0000000000	1.9913050444	1.0000000000	0.0000000000	0.0000000000	-12.8385849395	1.0000000000	618.1560131247	1.0000000000	0.0000000000	0.0000000000
0.3100000000	-0.1987484237	1.0000000000	1.8029490243	1.0000000000	0.0000000000	0.0000000000	-8.0247973114	1.0000000000	621.2432393076	1.0000000000	0.0000000000	0.0000000000
0.3200000000	-0.3823486165	1.0000000000	1.9957835645	1.0000000000	0.0000000000	0.0000000000	-3.3604701361	1.0000000000	629.3137671807	1.0000000000	0.0000000000	0.0000000000
0.3300000000	-0.4223039867	1.0000000000	1.9841589597	1.0000000000	0.0000000000	0.0000000000	1.2727583009	1.0000000000	641.3183687031	1.0000000000	0.0000000000	0.0000000000
0.3400000000	-0.1366826553	1.0000000000	1.6264817526	1.0000000000	0.0000000000	0.0000000000	6.1282493081	1.0000000000	656.2115338656	1.0000000000	0.0000000000	0.0000000000
0.3500000000	-0.1017231332	1.0000000000	1.4988469899	1.0000000000	0.0000000000	0.0000000000	11.4873705675	1.0000000000	673.9808387730	1.0000000000	0.0000000000	0.0000000000
0.3600000000	-0.1245159908	1.0000000000	1.4474741118	1.0000000000	0.0000000000	0.0000000000	17.4443881914	1.0000000000	693.5844541762	1.0000000000	0.0000000000	0.0000000000
0.3700000000	-0.1465374503	1.0000000000	1.4176020133	1.0000000000	0.0000000000	0.0000000000	24.0944028218	1.0000000000	714.0422479642	1.0000000000	0.0000000000	0.0000000000
0.3800000000	-0.2415077606	1.0000000000	1.6495726247	1.0000000000	0.0000000000	0.0000000000	31.8222581170	1.0000000000	734.9522571353	1.0000000000	0.0000000000	0.0000000000
0.3900000000	-0.1472123977	1.0000000000	1.8103576452	1.0000000000	0.0000000000	0.0000000000	41.0215743135	1.0000000000	755.2563604630	1.0000000000	0.0000000000	0.0000000000
0.4000000000	0.0198252997	1.0000000000	1.7744988492	1.0000000000	0.0000000000	0.0000000000	51.6135904466	1.0000000000	775.2192624875	1.0000000000	0.0000000000	0.0000000000
0.4100000000	0.1080729454	1.0000000000	1.8006184111	1.0000000000	0.0000000000	0.0000000000	63.8204866803	1.0000000000	796.5016158974	1.0000000000	0.0000000000	0.0000000000
0.4200000000	0.1358025591	1.0000000000	1.7234897651	1.0000000000	0.0000000000	0.0000000000	77.2739186228	1.0000000000	818.9310358805	1.0000000000	0.0000000000	0.0000000000
0.4300000000	-0.0598114526	1.0000000000	1.0083625046	1.0000000000	0.0000000000	0.0000000000	91.2151634839	1.0000000000	841.5719110699	1.0000000000	0.0000000000	0.0000000000
0.4400000000	0.0000000000	1.0000000000	0.0000000000	1.0000000000	0.0000000000	0.0000000000	105.2402325988	1.0000000000	864.6901880236	1.0000000000	0.0000000000	0.0000000000
0.4500000000	0.0000000000	1.0000000000	0.0000000000	1.0000000000	0.0000000000	0.0000000000	118.6794551905	1.0000000000	887.4724531088	1.0000000000	0.0000000000	0.0000000000
0.4600000000	0.0000000000	1.0000000000	0.0000000000	1.0000000000	0.0000000000	0.0000000000	131.4092784148	1.0000000000	907.5929888348	1.0000000000	0.0000000000	0.0000000000
0.4700000000	0.0000000000	1.0000000000	0.0000000000	1.0000000000	0.0000000000	0.0000000000	144.0928803397	1.0000000000	923.3879558745	1.0000000000	0.0000000000	0.0000000000
0.4800000000	0.0000000000	1.0000000000	0.0000000000	1.0000000000	0.0000000000	0.0000000000	156.7840034400	1.0000000000	933.6776686435	1.0000000000	0.0000000000	0.0000000000
0.4900000000	8.1410906244	1.0000000000	8.1808075292	1.0000000000	0.0000000000	0.0000000000	169.5631462742	1.0000000000	936.8160014769	1.0000000000	0.0000000000	0.0000000000
0.5000000000	13.3004112172	1.0000000000	47.5880503918	1.0000000000	0.0000000000	0.0000000000	182.5281200322	1.0000000000	931.1367754048	1.0000000000	0.0000000000	0.0000000000
0.5100000000	15.5745128234	1.0000000000	117.6208056351	1.0000000000	0.0000000000	0.0000000000	194.9290851313	1.0000000000	915.0632211427	1.0000000000	0.0000000000	0.0000000000
0.5200000000	7.4152268115	1.0000000000	211.7297126081	1.0000000000	0.0000000000	0.0000000000	205.9834003819	1.0000000000	886.6492263852	1.0000000000	0.0000000000	0.0000000000
0.5300000000	-17.4648752961	1.0000000000	307.0751690828	1.0000000000	0.0000000000	0.0000000000	214.0225387339	1.0000000000	843.3718699544	1.0000000000	0.0000000000	0.0000000000
0.5400000000	-53.0019414040	1.0000000000	385.2070483762	1.0000000000	0.0000000000	0.0000000000	217.0235709839	1.0000000000	782.1521316004	1.0000000000	0.0000000000	0.0000000000
0.5500000000	-86.6139455727	1.0000000000	448.6255313084	1.0000000000	0.0000000000	0.0000000000	214.4840591804	1.0000000000	702.4933694412	1.0000000000	0.0000000000	0.0000000000
0.5600000000	-116.1216897050	1.0000000000	507.4537805136	1.0000000000	0.0000000000	0.0000000000	203.8505881169	1.0000000000	606.4811246957	1.0000000000	0.0000000000	0.0000000000
